PathFileType        4      (X/Y/Z)      C:\Users\pc\Desktop\IMUTRC\Sujet_07\Sujet_07_velo_100.trc         
DataRate	CameraRate	NumFrames	NumMarkers	Units	OrigDataRate	OrigDataStartFrame	OrigNumFrames
60.0	60.0	4	64	mm	60.0	1	933
Frame#	Time	pHipOrigin			pRightASI			pLeftASI			pRightCSI			pLeftCSI			pRightIschialTub			pLeftIschialTub			pSacrum			pL5SpinalProcess			pL3SpinalProcess			pT12SpinalProcess			pIJ			pT4SpinalProcess			pT8SpinalProcess			pPX			pC7SpinalProcess			pTopOfHead			pRightAuricularis			pLeftAuricularis			pBackOfHead			pRightAcromion			pLeftAcromion			pRightArmLatEpicondyle			pRightArmMedEpicondyle			pLeftArmLatEpicondyle			pLeftArmMedEpicondyle			pRightUlnarStyloid			pRightRadialStyloid			pRightOlecranon			pLeftUlnarStyloid			pLeftRadialStyloid			pLeftOlecranon			pRightTopOfHand			pRightPinky			pRightBallHand			pLeftTopOfHand			pLeftPinky			pLeftBallHand			pRightGreaterTrochanter			pRightKneeLatEpicondyle			pRightKneeMedEpicondyle			pRightPatella			pLeftGreaterTrochanter			pLeftKneeLatEpicondyle			pLeftKneeMedEpicondyle			pLeftPatella			pRightTibialTub			pRightLatMalleolus			pRightMedMalleolus			pLeftTibialTub			pLeftLatMalleolus			pLeftMedMalleolus			pRightHeelFoot			pRightFirstMetatarsal			pRightFifthMetatarsal			pRightPivotFoot			pRightHeelCenter			pRightToe			pLeftHeelFoot			pLeftFirstMetatarsal			pLeftFifthMetatarsal			pLeftPivotFoot			pLeftHeelCenter			pLeftToe			
		X1	Y1	Z1	X2	Y2	Z2	X3	Y3	Z3	X4	Y4	Z4	X5	Y5	Z5	X6	Y6	Z6	X7	Y7	Z7	X8	Y8	Z8	X9	Y9	Z9	X10	Y10	Z10	X11	Y11	Z11	X12	Y12	Z12	X13	Y13	Z13	X14	Y14	Z14	X15	Y15	Z15	X16	Y16	Z16	X17	Y17	Z17	X18	Y18	Z18	X19	Y19	Z19	X20	Y20	Z20	X21	Y21	Z21	X22	Y22	Z22	X23	Y23	Z23	X24	Y24	Z24	X25	Y25	Z25	X26	Y26	Z26	X27	Y27	Z27	X28	Y28	Z28	X29	Y29	Z29	X30	Y30	Z30	X31	Y31	Z31	X32	Y32	Z32	X33	Y33	Z33	X34	Y34	Z34	X35	Y35	Z35	X36	Y36	Z36	X37	Y37	Z37	X38	Y38	Z38	X39	Y39	Z39	X40	Y40	Z40	X41	Y41	Z41	X42	Y42	Z42	X43	Y43	Z43	X44	Y44	Z44	X45	Y45	Z45	X46	Y46	Z46	X47	Y47	Z47	X48	Y48	Z48	X49	Y49	Z49	X50	Y50	Z50	X51	Y51	Z51	X52	Y52	Z52	X53	Y53	Z53	X54	Y54	Z54	X55	Y55	Z55	X56	Y56	Z56	X57	Y57	Z57	X58	Y58	Z58	X59	Y59	Z59	X60	Y60	Z60	X61	Y61	Z61	X62	Y62	Z62	X63	Y63	Z63	X64	Y64	Z64	
1	0.0	0.0	1249.97763	7.653905517926474E-14	127.14224346199788	1315.76984	124.33829453552785	82.61583134193586	1318.22034	-156.46117739377416	108.92915016948749	1399.01257	102.41883748114776	72.32296527859944	1401.09178	-128.534390416574	-67.45528594267938	1218.41817	69.60816249180748	-85.77694588812341	1219.45777	-45.83629160368388	-54.53955429332833	1298.54208	9.069079058206073	25.01656463933344	1380.22541	-2.191260986156432	116.61320249180739	1462.35428	-13.959831549127923	203.83808165470435	1533.79006	-24.39391394332143	466.2561834070226	1488.41868	-67.52847900411615	386.4943339269362	1622.9734	-47.297923198945185	299.08114528972527	1591.26541	-35.943619227693404	348.6531143430441	1440.15126	-52.5967282592737	442.5222289979244	1641.83482	-53.44982410303466	715.9362037473021	1623.27043	-48.64945986831107	609.1911519173848	1598.31988	12.079733357679016	620.3690792782946	1625.12687	-129.80598475473113	607.4641502090097	1667.30516	-48.93903193865721	452.5397390964237	1565.20101	129.39773944103027	413.34046160503544	1604.85455	-239.04458032389428	474.9377774492626	1286.21533	115.40523902403696	444.7227624217515	1285.24998	58.43204020314334	420.3683248194805	1314.87875	-276.31625647995753	384.36159588281697	1303.36883	-224.04979254729574	575.5370543324315	1052.37825	48.98416025769925	622.543557327301	1079.25949	47.91318878444665	435.692797661761	1276.26481	90.26053795800334	479.0702955594358	1058.02182	-235.56503230598165	528.7893417252733	1075.54661	-248.0174463690748	377.62482069117175	1305.00249	-245.9457756361966	760.8052531657554	1012.87322	151.06132685160887	684.0305253904614	993.78903	98.24663609568759	632.2860096287677	1035.52178	54.65268640798997	622.6469577065426	992.67516	-382.811265925922	565.5454124980461	984.28406	-307.22536843411456	532.0421127668712	1033.59108	-254.5424910785111	31.006603981911454	1219.16074	172.929086533162	303.49579144667393	869.63037	145.4697693310329	310.7568031927535	873.56602	59.972388072468675	343.1553263814582	903.49182	104.4012598194336	-6.602568022380652	1235.49741	-178.2178367248071	313.6796385706906	935.27406	-244.79365130427823	333.26834147860586	927.84831	-161.54383999515977	353.9512146495738	968.91274	-204.0508071737795	363.5064634287612	837.25407	101.23131646170756	279.0862905159588	432.7731	129.23330513043132	280.2254832867848	433.29291	63.69568537174541	340.89117627718633	875.79375	-210.39059716400521	13.279226396491865	623.83782	-183.54515480393374	29.982402518852265	617.37742	-120.39652449563322	232.91532313861669	353.76305	93.65898646259292	398.8612065345135	342.25313	60.93574511399908	395.8918432260371	341.13927	140.33639323041106	419.91611375661034	340.0254	100.35879605667846	273.61012877388094	355.47098	95.20335549817497	511.8419199836617	331.33727	103.61418914469392	-63.68416736626322	591.09024	-134.00318648391226	57.07036771538466	472.12961	-132.7102364896848	38.66960082732866	478.44151	-209.70075334134077	63.37503119376774	459.35731	-175.11543395886824	-32.980337191469374	565.99118	-143.3718203336216	124.59510101278217	393.0453	-195.16144532831527	
2	0.017	0.0	1249.97763	7.653905517926474E-14	127.76081637391496	1315.17578	124.00945482390163	81.48278371839257	1319.70549	-156.429381342402	109.20362278814365	1398.56703	102.83453696034881	71.04869079451124	1402.27991	-127.81242226734463	-66.9036848913072	1217.74985	69.84088144532244	-85.9625858881234	1219.60629	-45.5147536917668	-54.616478767642235	1298.39357	9.79637615606329	24.672447025564438	1380.37392	-1.4467317953291505	116.15043405909134	1462.65131	-13.455313111524749	203.20226798956315	1534.16135	-24.332272371150303	465.334002639137	1488.86423	-69.34707506037549	385.7995518241918	1623.41894	-48.47076529680241	298.41087975915207	1591.71096	-36.416345274178454	347.80981724029976	1440.59681	-53.51233483144486	441.6544103230089	1642.28036	-55.065538066323896	715.0312600723867	1623.19617	-50.200871445369344	608.0661027167831	1598.69117	10.315495734135693	619.714091649864	1625.12687	-131.64181290396053	606.6805404876092	1667.45368	-50.84912008788659	452.8964651380216	1566.01784	127.88879181259982	411.2553963530617	1605.07732	-240.33414137037934	473.79744534651826	1286.4381	115.00411216349204	443.4809942725221	1285.32424	58.058085728829404	418.17186956750675	1315.17578	-277.4128843869874	382.42237615652925	1303.66586	-224.99790545432566	574.1885161880892	1052.22973	49.834736839644684	621.1950278432128	1079.03671	48.76377036639207	434.48815951253164	1276.41333	89.82227243720439	477.1973374102064	1058.54163	-234.84573363106617	526.8520725295589	1075.99215	-247.33527769415932	375.51985387191394	1305.29952	-246.90384615699546	759.2339536816673	1013.09599	152.29775739195642	682.5977832926043	993.78903	99.39157820331909	630.8632164844254	1035.37326	55.63187642265135	621.1943140414014	992.45239	-381.3348332926043	563.8355333072186	984.43257	-305.897450800797	530.2235130503577	1033.96237	-253.62032397087955	30.729466888941403	1218.64094	173.11206205884812	283.66445073911683	854.55609	147.73937901873063	290.2996150940783	857.00659	62.13789723936744	324.69970120447437	885.74427	105.92172031141688	-6.602568022380652	1237.27959	-178.2178367248071	325.92109405289955	951.09092	-246.98653415805683	345.7398464400159	943.73943	-163.68964023516932	364.7725414617545	985.99198	-205.8631750177838	343.3654792933753	822.69959	104.77982429863465	263.8905268796332	417.17901	132.97883980835473	266.39282175320363	417.40179	67.45649795181158	352.0983470477691	892.13042	-211.9801863477554	22.454983724584288	642.99628	-183.99245269411225	38.95528775397463	636.8329	-120.78947761334976	212.90100690537355	341.58481	95.65145905732057	377.8669763428682	319.01051	63.734398471725136	374.27175698301966	316.56001	143.03094106733815	398.38751960656293	314.4808	103.19191494009061	253.6130446336079	340.47095	97.46302123235772	488.903141117101	299.55503	106.66207960516438	-53.91434503817078	607.79819	-135.47943513708918	69.91317133704874	492.1049	-135.4991248740366	51.81670526793976	499.23363	-212.57118620489362	76.7621477273489	480.22369	-178.10453996187618	-22.527627244720797	583.73874	-145.1397650381707	139.89230569559274	415.91664	-198.93416105272374	
3	0.033	0.0	1249.97763	7.653905517926474E-14	128.37939294608609	1314.50746	123.68062877252945	80.24829504836423	1321.11638	-156.3704042445448	109.44095674654578	1398.04722	103.31454248603492	69.83871869665403	1403.39377	-127.05332911811522	-66.379261226166	1217.00727	69.9721730126064	-86.2125332743544	1219.68055	-45.23033211959568	-54.69340324195615	1298.1708	10.523673253920505	24.3926541185345	1380.52244	-0.665076264755906	115.65052196612129	1463.0226	-12.886479967182499	202.63077403116105	1534.60689	-24.23349579897917	464.3747055315056	1489.30977	-71.10136373040388	385.0033286749624	1623.86449	-49.616426348174585	297.71342818209376	1592.15651	-36.990503706894486	347.0036451375554	1441.04236	-54.49224378984695	440.8509076945784	1642.72591	-56.6441306898672	714.1263213974712	1623.04765	-51.752291682681644	606.9410535161816	1598.9882	8.551258110592512	619.0219653611796	1625.05261	-133.41333500670487	605.9340694264627	1667.67645	-52.823514283601085	453.2531825193654	1566.83467	126.37983918416936	409.197512147573	1605.30009	-241.52226137037934	472.6942395835198	1286.58661	114.53866059620809	442.13779007680773	1285.47275	57.7113036407465	416.039730362018	1315.47281	-278.4723909542714	380.4188503837566	1303.96289	-225.98315702160963	572.7385456575159	1052.08122	50.71249946807516	619.8464896988705	1078.8882	49.61434694833745	433.2463913633022	1276.6361	89.4483179628905	475.351565307462	1059.06143	-234.02500256991968	525.0162530405835	1076.4377	-246.6802850657289	373.45202071291027	1305.67081	-247.92621406402546	757.72695158381	1013.24451	153.571321592558	681.192222241232	993.71477	100.63796135743564	629.5418543865682	1035.22475	56.583902711335874	619.7144929900292	992.15536	-379.9598280455178	562.2270988231305	984.58109	-304.5967005537104	528.4049219940985	1034.40792	-252.69815186324806	30.425152409740335	1218.1954	173.19361019830322	263.0759710731577	840.59566	150.42931185077057	268.98383833026196	841.63527	64.7509055970935	305.35832363637246	868.96206	107.78824894774245	-6.5011356361496695	1239.13603	-178.24502277129213	337.55391691645235	967.50185	-249.01633439317916	357.51124035005375	960.22461	-165.81093256326176	374.81949588281697	1003.59103	-207.52239053639275	323.2516762044744	808.07085	108.42977318204679	248.74912167602375	401.65918	136.92724291899418	252.55021626610753	401.65918	71.38305396459381	363.3055264786059	908.54134	-213.56977053150558	31.695048438907712	662.15473	-184.40263424454486	48.02960403558201	656.28838	-121.20959445704325	193.21818985807056	329.92637	97.66383821933219	356.35827509985086	296.28769	66.23602182945119	351.99862864214504	292.4263	145.51995099723533	376.2058796984044	289.53026	105.81948225621879	233.71740153981986	325.84221	99.69550592005542	465.60569433862315	267.99556	109.58864111211982	-44.1345787565634	624.65466	-137.12142722298216	82.69165525197373	512.15444	-138.32514825838837	64.92669336880488	520.24852	-215.37731168221543	90.14926426093007	501.23858	-181.09364596488408	-11.973484911741224	601.4863	-146.93489578920486	155.1523753784033	438.78797	-202.64255707039308	
4	0.05	0.0	1249.97763	7.653905517926474E-14	128.92370951825723	1313.9134	123.48042481412733	79.38243556427602	1322.23025	-156.35583162588864	109.81686541168696	1397.45316	103.70306957900497	69.0344971244829	1404.35912	-126.40295649457192	-66.02059331424891	1216.48747	70.09350196612137	-86.36104827435439	1219.90332	-44.97309659390958	-54.69606771627005	1298.02228	11.122348258807657	24.187107551250527	1380.52244	-0.01203916689869262	115.39062196612127	1463.17111	-12.436319962295347	202.31651193819098	1534.82966	-23.98621788706209	463.8184894752462	1489.53255	-72.36568926097709	384.5187031443892	1624.16152	-50.41069030657671	297.32757056343763	1592.45354	-37.213278706894485	346.47193699321315	1441.33939	-55.05645826904802	440.38618007103514	1643.02294	-57.769898834209485	713.5972777274428	1622.75062	-52.91518116676987	606.2190903669523	1599.13672	7.27697496625022	618.6686263978904	1624.90409	-134.73201396999417	605.5535407564344	1667.67645	-54.243639293375324	453.7186290866494	1567.35448	125.27664208142498	407.7184013796874	1605.30009	-242.37622637037933	471.92982114591666	1286.66087	114.52605216837922	441.2991029789505	1285.47275	57.82731230588771	414.69918564061743	1315.69558	-279.41783938698745	379.1054917088411	1304.1114	-226.82717306809462	571.7758601318297	1051.78419	51.7858597102746	618.8466741731844	1078.51691	50.75201823702199	432.4819729256991	1276.6361	89.43570953506165	474.0030221631198	1059.35846	-233.1744173277202	523.7320259427263	1076.66047	-245.79257848378344	372.1757920379948	1305.81932	-248.83454115699547	756.642932104609	1013.17025	155.0033584069286	680.145324101777	993.56625	102.00568212532121	628.5692299073671	1034.92772	57.82299772599732	618.7219706037982	991.78407	-378.3892288449161	561.0416432974444	984.50683	-303.1374913531087	527.1379269892112	1034.63069	-251.54325214184755	30.185153977024314	1217.89836	173.31227967750428	244.6965600870012	829.60554	153.4514454919833	249.94144129273323	829.30851	67.73324476399226	287.88457026887215	855.44718	110.13283757918083	-6.5011356361496695	1240.7697	-178.24502277129213	347.6751226772608	982.87316	-250.80417700475823	367.8996392503173	975.81869	-167.61600726781091	383.5577029735971	1020.07621	-208.99402918468255	305.0625338834591	795.44706	112.16197182814663	230.7528988342095	388.96114	140.77083522534804	235.80570186678358	388.73837	75.43484365229153	373.86694829078647	923.91266	-214.93196971036863	42.92940891622954	676.5607	-185.89077738180998	58.98683241993378	671.21415	-122.51477072887634	171.306402563681	321.31249	99.67550709785719	332.0762920375756	277.50053	68.93713020183868	326.75929400281154	272.45102	148.09706094179396	351.095167152041	268.66388	108.4708522007774	211.38991110597516	314.4808	101.98163375698253	439.20346155494747	240.89155	112.69478972670682	-31.51455379515336	635.79329	-139.5244716489318	99.68345256321474	528.49111	-142.06268451337004	81.94565806627689	537.2535	-219.01340323045804	107.7496805305732	518.68911	-184.99426117826792	1.5594771475260316	614.18434	-149.5825536527577	175.16012241593197	459.43157	-207.29693148437846	
